<svg xmlns="http://www.w3.org/2000/svg" viewBox="0 0 1440 320">
  <path fill="#ffffff" fill-opacity="0.8" d="M0,224L15,197.3C30,171,60,117,90,117.3C120,117,150,171,180,181.3C210,192,240,160,270,149.3C300,139,330,149,360,170.7C390,192,420,224,450,245.3C480,267,510,277,540,234.7C570,192,600,96,630,69.3C660,43,690,85,720,112C750,139,780,149,810,165.3C840,181,870,203,900,197.3C930,192,960,160,990,154.7C1020,149,1050,171,1080,181.3C1110,192,1140,192,1170,181.3C1200,171,1230,149,1260,165.3C1290,181,1320,235,1350,250.7C1380,267,1410,245,1425,234.7L1440,224L1440,320L1425,320C1410,320,1380,320,1350,320C1320,320,1290,320,1260,320C1230,320,1200,320,1170,320C1140,320,1110,320,1080,320C1050,320,1020,320,990,320C960,320,930,320,900,320C870,320,840,320,810,320C780,320,750,320,720,320C690,320,660,320,630,320C600,320,570,320,540,320C510,320,480,320,450,320C420,320,390,320,360,320C330,320,300,320,270,320C240,320,210,320,180,320C150,320,120,320,90,320C60,320,30,320,15,320L0,320Z"></path>
</svg>