<svg width="125px" height="125px" viewBox="0 0 125 125" fill="none" xmlns="http://www.w3.org/2000/svg">
<rect x="14" y="14" width="97" height="97" />
<ellipse cx="63" cy="49" rx="17" ry="23" fill="url(#paint0_linear)"/>
<path d="M79 49C79 55.1592 77.1534 60.6958 74.2166 64.6691C71.2797 68.6426 67.3028 71 63 71C58.6972 71 54.7203 68.6426 51.7834 64.6691C48.8466 60.6958 47 55.1592 47 49C47 42.8408 48.8466 37.3042 51.7834 33.3309C54.7203 29.3574 58.6972 27 63 27C67.3028 27 71.2797 29.3574 74.2166 33.3309C77.1534 37.3042 79 42.8408 79 49Z" stroke="#3F3F3F" stroke-width="2" stroke-linecap="round" stroke-linejoin="round"/>
<path opacity="0.89" d="M92 91C92 82.7157 79.0163 76 63 76C46.9837 76 34 82.7157 34 91" stroke="#272727" stroke-width="3" stroke-linecap="round" stroke-linejoin="round"/>
<defs>
<linearGradient id="paint0_linear" x1="71.5" y1="49" x2="46" y2="83" gradientUnits="userSpaceOnUse">
<stop stop-color="#34ECE1" stop-opacity="0"/>
<stop offset="1" stop-color="#34F0E5"/>
</linearGradient>
</defs>
</svg>
